<svg width="55px" height="46px" viewBox="0 0 55 46" stroke-width="1" fill-rule="evenodd" fill="#FFFFFF" xmlns="http://www.w3.org/2000/svg">
  <path d="M0.532167832,6.63687151 C0.532167832,14.1787709 8.35034965,15.1969274 8.35034965,20.627095 C8.35034965,22.5125698 7.55034965,23.1913408 6.27762238,23.1913408 C5.0048951,23.1913408 4.2048951,22.5125698 4.2048951,20.627095 L4.2048951,18.7416201 L0.423076923,18.7416201 L0.423076923,20.3631285 C0.423076923,24.5865922 2.45944056,27 6.38671329,27 C10.313986,27 12.3503497,24.5865922 12.3503497,20.3631285 C12.3503497,12.8212291 4.53216783,11.8030726 4.53216783,6.37290503 C4.53216783,4.48743017 5.25944056,3.77094972 6.53216783,3.77094972 C7.8048951,3.77094972 8.53216783,4.48743017 8.53216783,6.37290503 L8.53216783,7.46648045 L12.313986,7.46648045 L12.313986,6.63687151 C12.313986,2.41340782 10.313986,0 6.42307692,0 C2.53216783,0 0.532167832,2.41340782 0.532167832,6.63687151 Z M23.7685315,26.698324 L27.8776224,26.698324 L22.313986,12.0670391 L27.8776224,0.301675978 L23.8776224,0.301675978 L18.6412587,11.8030726 L18.6412587,0.301675978 L14.6412587,0.301675978 L14.6412587,26.698324 L18.6412587,26.698324 L18.6412587,18.5907821 L19.8776224,16.1773743 L23.7685315,26.698324 Z M43.8412587,26.698324 L43.8412587,0.301675978 L47.8412587,0.301675978 L47.8412587,22.9273743 L54.4230769,22.9273743 L54.4230769,26.698324 L43.8412587,26.698324 Z M29.113986,20.3631285 C29.113986,24.5865922 31.2594406,27 35.1867133,27 C39.113986,27 41.2594406,24.5865922 41.2594406,20.3631285 L41.2594406,6.63687151 C41.2594406,2.41340782 39.113986,0 35.1867133,0 C31.2594406,0 29.113986,2.41340782 29.113986,6.63687151 L29.113986,20.3631285 Z" id="Skol"></path>
  <path d="M6.13412508,38.8617318 L6.13412508,41.5153631 C6.13412508,42.8421788 5.57321857,43.3198324 4.68086729,43.3198324 C3.78851602,43.3198324 3.2276095,42.8421788 3.2276095,41.5153631 L3.2276095,31.4846369 C3.2276095,30.1578212 3.78851602,29.6536313 4.68086729,29.6536313 C5.57321857,29.6536313 6.13412508,30.1578212 6.13412508,31.4846369 L6.13412508,33.4748603 L8.78568316,33.4748603 L8.78568316,31.6703911 C8.78568316,28.698324 7.35792112,27 4.60438004,27 C1.85083896,27 0.423076923,28.698324 0.423076923,31.6703911 L0.423076923,41.3296089 C0.423076923,44.301676 1.85083896,46 4.60438004,46 C7.35792112,46 8.78568316,44.301676 8.78568316,41.3296089 L8.78568316,38.8617318 L6.13412508,38.8617318 Z M16.7148616,27.2122905 L12.6100458,27.2122905 L9.75452168,45.7877095 L12.3295925,45.7877095 L12.8140118,42.4175978 L16.2559381,42.4175978 L16.7403574,45.7877095 L19.5703857,45.7877095 L16.7148616,27.2122905 Z M14.5222271,30.5027933 L15.8735019,39.896648 L13.1709523,39.896648 L14.5222271,30.5027933 Z M20.5137285,31.6703911 C20.5137285,36.9776536 25.9953149,37.6941341 25.9953149,41.5153631 C25.9953149,42.8421788 25.4344084,43.3198324 24.5420571,43.3198324 C23.6497058,43.3198324 23.0887993,42.8421788 23.0887993,41.5153631 L23.0887993,40.1885475 L20.4372412,40.1885475 L20.4372412,41.3296089 C20.4372412,44.301676 21.8650033,46 24.6185443,46 C27.3720854,46 28.7998475,44.301676 28.7998475,41.3296089 C28.7998475,36.0223464 23.3182611,35.3058659 23.3182611,31.4846369 C23.3182611,30.1578212 23.8281761,29.6536313 24.7205273,29.6536313 C25.6128786,29.6536313 26.1227936,30.1578212 26.1227936,31.4846369 L26.1227936,32.2541899 L28.7743517,32.2541899 L28.7743517,31.6703911 C28.7743517,28.698324 27.3720854,27 24.6440401,27 C21.9159948,27 20.5137285,28.698324 20.5137285,31.6703911 Z M30.4060798,45.7877095 L33.2106123,45.7877095 L33.2106123,27.2122905 L30.4060798,27.2122905 L30.4060798,45.7877095 Z M41.2417738,45.7877095 L44.1227936,45.7877095 L44.1227936,27.2122905 L41.6242101,27.2122905 L41.6242101,38.3310056 L38.7431902,27.2122905 L35.2247766,27.2122905 L35.2247766,45.7877095 L37.748856,45.7877095 L37.748856,32.3337989 L41.2417738,45.7877095 Z M45.9074962,41.3296089 L45.9074962,31.6703911 C45.9074962,28.698324 47.4117455,27 50.1652866,27 C52.9188276,27 54.4230769,28.698324 54.4230769,31.6703911 L54.4230769,41.3296089 C54.4230769,44.301676 52.9188276,46 50.1652866,46 C47.4117455,46 45.9074962,44.301676 45.9074962,41.3296089 Z" id="Casino"></path>
</svg>
